<?xml version="1.0" encoding="UTF-8" standalone="no"?>
<!-- Created with Inkscape (http://www.inkscape.org/) -->

<svg
   width="1351.5861"
   height="1351.5861"
   viewBox="0 0 357.60714 357.60714"
   version="1.1"
   id="svg1"
   inkscape:version="1.4 (86a8ad7, 2024-10-11)"
   inkscape:export-filename="rain.svg"
   inkscape:export-xdpi="96"
   inkscape:export-ydpi="96"
   xmlns:inkscape="http://www.inkscape.org/namespaces/inkscape"
   xmlns:sodipodi="http://sodipodi.sourceforge.net/DTD/sodipodi-0.dtd"
   xmlns="http://www.w3.org/2000/svg"
   xmlns:svg="http://www.w3.org/2000/svg">
  <sodipodi:namedview
     id="namedview1"
     pagecolor="#ffffff"
     bordercolor="#000000"
     borderopacity="0.25"
     inkscape:showpageshadow="2"
     inkscape:pageopacity="0.0"
     inkscape:pagecheckerboard="0"
     inkscape:deskcolor="#d1d1d1"
     inkscape:document-units="mm">
    <inkscape:page
       x="0"
       y="0"
       width="357.60715"
       height="357.60715"
       id="page2"
       margin="0"
       bleed="0" />
  </sodipodi:namedview>
  <defs
     id="defs1" />
  <g
     id="g12-5"
     inkscape:label="cloud"
     style="fill:#cccccc"
     transform="matrix(1.0417704,0,0,1.0417704,140.53181,243.60716)">
    <g
       id="g11-4"
       style="fill:#cccccc">
      <path
         style="fill:#cccccc;stroke-width:4.16557;stroke-linecap:square;stroke-miterlimit:0;paint-order:markers fill stroke"
         id="path5-3"
         sodipodi:type="arc"
         sodipodi:cx="-53.952072"
         sodipodi:cy="-137.28149"
         sodipodi:rx="63.394508"
         sodipodi:ry="53.309013"
         sodipodi:start="0"
         sodipodi:end="6.2317756"
         sodipodi:open="true"
         sodipodi:arc-type="arc"
         d="m 9.4424362,-137.28149 a 63.394508,53.309013 0 0 1 -62.5797572,53.304606 63.394508,53.309013 0 0 1 -64.188319,-51.934456 63.394508,53.309013 0 0 1 60.929854,-54.63955 63.394508,53.309013 0 0 1 65.7544662,50.53" />
      <path
         style="fill:#cccccc;stroke-width:4.16557;stroke-linecap:square;stroke-miterlimit:0;paint-order:markers fill stroke"
         id="path9-1"
         sodipodi:type="arc"
         sodipodi:cx="-20.814041"
         sodipodi:cy="-177.62346"
         sodipodi:rx="50.427444"
         sodipodi:ry="36.019604"
         sodipodi:start="0"
         sodipodi:end="6.2317756"
         sodipodi:open="true"
         sodipodi:arc-type="arc"
         d="m 29.613403,-177.62346 a 50.427444,36.019604 0 0 1 -49.779347,36.01663 50.427444,36.019604 0 0 1 -51.058883,-35.09085 50.427444,36.019604 0 0 1 48.466922,-36.91861 50.427444,36.019604 0 0 1 52.304684,34.14189" />
      <path
         style="fill:#cccccc;stroke-width:4.16557;stroke-linecap:square;stroke-miterlimit:0;paint-order:markers fill stroke"
         id="path10-2"
         sodipodi:type="arc"
         sodipodi:cx="41.139683"
         sodipodi:cy="-190.5905"
         sodipodi:rx="37.460388"
         sodipodi:ry="37.460388"
         sodipodi:start="0"
         sodipodi:end="6.2317756"
         sodipodi:open="true"
         sodipodi:arc-type="arc"
         d="m 78.600071,-190.5905 a 37.460388,37.460388 0 0 1 -36.978945,37.45729 37.460388,37.460388 0 0 1 -37.9294563,-36.49448 37.460388,37.460388 0 0 1 36.0040003,-38.39536 37.460388,37.460388 0 0 1 38.854909,35.50757" />
      <g
         id="g10-3"
         transform="matrix(-0.93084745,0,0,0.93084745,-57.928537,-129.77962)"
         style="fill:#cccccc">
        <path
           style="fill:#cccccc;stroke-width:4.16557;stroke-linecap:square;stroke-miterlimit:0;paint-order:markers fill stroke"
           id="path5-7-3"
           sodipodi:type="arc"
           sodipodi:cx="-203.83466"
           sodipodi:cy="-8.9785242"
           sodipodi:rx="63.394508"
           sodipodi:ry="53.309013"
           sodipodi:start="0"
           sodipodi:end="6.2317756"
           sodipodi:open="true"
           sodipodi:arc-type="arc"
           d="m -140.44015,-8.9785242 a 63.394508,53.309013 0 0 1 -62.57975,53.3046102 63.394508,53.309013 0 0 1 -64.18832,-51.9344607 63.394508,53.309013 0 0 1 60.92985,-54.6395413 63.394508,53.309013 0 0 1 65.75447,50.529998" />
        <path
           style="fill:#cccccc;stroke-width:4.16557;stroke-linecap:square;stroke-miterlimit:0;paint-order:markers fill stroke"
           id="path9-6-4"
           sodipodi:type="arc"
           sodipodi:cx="-170.69662"
           sodipodi:cy="-49.320488"
           sodipodi:rx="50.427444"
           sodipodi:ry="36.019604"
           sodipodi:start="0"
           sodipodi:end="6.2317756"
           sodipodi:open="true"
           sodipodi:arc-type="arc"
           d="m -120.26918,-49.320488 a 50.427444,36.019604 0 0 1 -49.77935,36.016629 50.427444,36.019604 0 0 1 -51.05888,-35.090852 50.427444,36.019604 0 0 1 48.46692,-36.91861 50.427444,36.019604 0 0 1 52.30469,34.141891" />
        <path
           style="fill:#cccccc;stroke-width:4.16557;stroke-linecap:square;stroke-miterlimit:0;paint-order:markers fill stroke"
           id="path10-1-1"
           sodipodi:type="arc"
           sodipodi:cx="-108.7429"
           sodipodi:cy="-62.287529"
           sodipodi:rx="37.460388"
           sodipodi:ry="37.460388"
           sodipodi:start="0"
           sodipodi:end="6.2317756"
           sodipodi:open="true"
           sodipodi:arc-type="arc"
           d="m -71.282509,-62.287529 a 37.460388,37.460388 0 0 1 -36.978941,37.457294 37.460388,37.460388 0 0 1 -37.92946,-36.494486 37.460388,37.460388 0 0 1 36.004,-38.395354 37.460388,37.460388 0 0 1 38.854909,35.507567" />
      </g>
    </g>
    <path
       style="fill:#cccccc;stroke-width:4.801;stroke-linecap:square;stroke-miterlimit:0;paint-order:markers fill stroke"
       id="path11-1"
       sodipodi:type="arc"
       sodipodi:cx="31.70331"
       sodipodi:cy="-123.68204"
       sodipodi:rx="81.019569"
       sodipodi:ry="51.66465"
       sodipodi:start="0"
       sodipodi:end="6.2317756"
       sodipodi:open="true"
       sodipodi:arc-type="arc"
       d="m 112.72288,-123.68204 a 81.019569,51.66465 0 0 1 -79.978301,51.660386 81.019569,51.66465 0 0 1 -82.034073,-50.332496 81.019569,51.66465 0 0 1 77.869684,-52.95414 81.019569,51.66465 0 0 1 84.03565,48.97136" />
  </g>
  <g
     id="g15"
     inkscape:label="drop"
     transform="matrix(0.10553597,0,0,0.12656383,162.17003,184.97074)">
    <path
       style="fill:#0000ff;stroke-width:4.801;stroke-linecap:square;stroke-miterlimit:0;paint-order:markers fill stroke"
       id="path13"
       sodipodi:type="arc"
       sodipodi:cx="-191.52187"
       sodipodi:cy="281.29776"
       sodipodi:rx="77.805756"
       sodipodi:ry="77.805756"
       sodipodi:start="0"
       sodipodi:end="6.2317756"
       sodipodi:open="true"
       sodipodi:arc-type="arc"
       d="m -113.71611,281.29776 a 77.805756,77.805756 0 0 1 -76.80579,77.79933 77.805756,77.805756 0 0 1 -78.78002,-75.79956 77.805756,77.805756 0 0 1 74.78082,-79.7477 77.805756,77.805756 0 0 1 80.70219,73.74972" />
    <path
       sodipodi:type="star"
       style="fill:#0000ff;stroke-width:4.801;stroke-linecap:square;stroke-miterlimit:0;paint-order:markers fill stroke"
       id="path14"
       inkscape:flatsided="true"
       sodipodi:sides="3"
       sodipodi:cx="-191.52187"
       sodipodi:cy="83.790817"
       sodipodi:r1="131.6713"
       sodipodi:r2="65.83564"
       sodipodi:arg1="1.5707963"
       sodipodi:arg2="2.6179939"
       inkscape:rounded="0"
       inkscape:randomized="0"
       d="m -191.52186,215.46211 -114.03069,-197.506937 228.061369,-6e-6 z"
       inkscape:transform-center-y="-21.235122"
       transform="matrix(-0.64571675,3.5894582e-4,-3.5894582e-4,-0.64571675,-315.14772,267.87501)"
       inkscape:transform-center-x="-0.023623774" />
  </g>
  <g
     id="g15-9"
     inkscape:label="drop"
     transform="matrix(0.10553597,0,0,0.12656383,199.01602,245.52748)">
    <path
       style="fill:#0000ff;stroke-width:4.801;stroke-linecap:square;stroke-miterlimit:0;paint-order:markers fill stroke"
       id="path13-1"
       sodipodi:type="arc"
       sodipodi:cx="-191.52187"
       sodipodi:cy="281.29776"
       sodipodi:rx="77.805756"
       sodipodi:ry="77.805756"
       sodipodi:start="0"
       sodipodi:end="6.2317756"
       sodipodi:open="true"
       sodipodi:arc-type="arc"
       d="m -113.71611,281.29776 a 77.805756,77.805756 0 0 1 -76.80579,77.79933 77.805756,77.805756 0 0 1 -78.78002,-75.79956 77.805756,77.805756 0 0 1 74.78082,-79.7477 77.805756,77.805756 0 0 1 80.70219,73.74972" />
    <path
       sodipodi:type="star"
       style="fill:#0000ff;stroke-width:4.801;stroke-linecap:square;stroke-miterlimit:0;paint-order:markers fill stroke"
       id="path14-3"
       inkscape:flatsided="true"
       sodipodi:sides="3"
       sodipodi:cx="-191.52187"
       sodipodi:cy="83.790817"
       sodipodi:r1="131.6713"
       sodipodi:r2="65.83564"
       sodipodi:arg1="1.5707963"
       sodipodi:arg2="2.6179939"
       inkscape:rounded="0"
       inkscape:randomized="0"
       d="m -191.52186,215.46211 -114.03069,-197.506937 228.061369,-6e-6 z"
       inkscape:transform-center-y="-21.235122"
       transform="matrix(-0.64571675,3.5894582e-4,-3.5894582e-4,-0.64571675,-315.14772,267.87501)"
       inkscape:transform-center-x="-0.023623774" />
  </g>
  <g
     id="g15-4"
     inkscape:label="drop"
     transform="matrix(0.10553597,0,0,0.12656383,235.86201,184.97074)">
    <path
       style="fill:#0000ff;stroke-width:4.801;stroke-linecap:square;stroke-miterlimit:0;paint-order:markers fill stroke"
       id="path13-0"
       sodipodi:type="arc"
       sodipodi:cx="-191.52187"
       sodipodi:cy="281.29776"
       sodipodi:rx="77.805756"
       sodipodi:ry="77.805756"
       sodipodi:start="0"
       sodipodi:end="6.2317756"
       sodipodi:open="true"
       sodipodi:arc-type="arc"
       d="m -113.71611,281.29776 a 77.805756,77.805756 0 0 1 -76.80579,77.79933 77.805756,77.805756 0 0 1 -78.78002,-75.79956 77.805756,77.805756 0 0 1 74.78082,-79.7477 77.805756,77.805756 0 0 1 80.70219,73.74972" />
    <path
       sodipodi:type="star"
       style="fill:#0000ff;stroke-width:4.801;stroke-linecap:square;stroke-miterlimit:0;paint-order:markers fill stroke"
       id="path14-76"
       inkscape:flatsided="true"
       sodipodi:sides="3"
       sodipodi:cx="-191.52187"
       sodipodi:cy="83.790817"
       sodipodi:r1="131.6713"
       sodipodi:r2="65.83564"
       sodipodi:arg1="1.5707963"
       sodipodi:arg2="2.6179939"
       inkscape:rounded="0"
       inkscape:randomized="0"
       d="m -191.52186,215.46211 -114.03069,-197.506937 228.061369,-6e-6 z"
       inkscape:transform-center-y="-21.235122"
       transform="matrix(-0.64571675,3.5894582e-4,-3.5894582e-4,-0.64571675,-315.14772,267.87501)"
       inkscape:transform-center-x="-0.023623774" />
  </g>
</svg>
