<?xml version="1.0" encoding="UTF-8" standalone="no"?>
<!-- Created with Inkscape (http://www.inkscape.org/) -->

<svg
   width="1351.5861"
   height="1351.5861"
   viewBox="0 0 357.60714 357.60714"
   version="1.1"
   id="svg1"
   inkscape:version="1.4 (86a8ad7, 2024-10-11)"
   inkscape:export-filename="clear.svg"
   inkscape:export-xdpi="96"
   inkscape:export-ydpi="96"
   xmlns:inkscape="http://www.inkscape.org/namespaces/inkscape"
   xmlns:sodipodi="http://sodipodi.sourceforge.net/DTD/sodipodi-0.dtd"
   xmlns="http://www.w3.org/2000/svg"
   xmlns:svg="http://www.w3.org/2000/svg">
  <sodipodi:namedview
     id="namedview1"
     pagecolor="#ffffff"
     bordercolor="#000000"
     borderopacity="0.25"
     inkscape:showpageshadow="2"
     inkscape:pageopacity="0.0"
     inkscape:pagecheckerboard="0"
     inkscape:deskcolor="#d1d1d1"
     inkscape:document-units="mm">
    <inkscape:page
       x="0"
       y="0"
       width="357.60715"
       height="357.60715"
       id="page2"
       margin="0"
       bleed="0" />
  </sodipodi:namedview>
  <defs
     id="defs1" />
  <path
     style="fill:#ffff00;stroke-width:4.801;stroke-linecap:square;stroke-miterlimit:0;paint-order:markers fill stroke"
     id="path1"
     sodipodi:type="arc"
     sodipodi:cx="178.80362"
     sodipodi:cy="178.80362"
     sodipodi:rx="178.80362"
     sodipodi:ry="178.80362"
     sodipodi:start="0"
     sodipodi:end="6.2317756"
     sodipodi:open="true"
     sodipodi:arc-type="arc"
     d="M 357.60724,178.80362 A 178.80362,178.80362 0 0 1 181.10162,357.59247 178.80362,178.80362 0 0 1 0.05906805,183.39923 178.80362,178.80362 0 0 1 171.91115,0.13289398 178.80362,178.80362 0 0 1 357.37101,169.61543"
     inkscape:label="sun" />
  <g
     id="g12"
     inkscape:label="cloud"
     style="fill:#f9f9f9"
     transform="matrix(1.2408091,0,0,1.2408091,273.43004,369.60145)">
    <g
       id="g11"
       style="fill:#f9f9f9">
      <path
         style="fill:#f9f9f9;stroke-width:4.16557;stroke-linecap:square;stroke-miterlimit:0;paint-order:markers fill stroke"
         id="path5"
         sodipodi:type="arc"
         sodipodi:cx="-53.952072"
         sodipodi:cy="-137.28149"
         sodipodi:rx="63.394508"
         sodipodi:ry="53.309013"
         sodipodi:start="0"
         sodipodi:end="6.2317756"
         sodipodi:open="true"
         sodipodi:arc-type="arc"
         d="m 9.4424362,-137.28149 a 63.394508,53.309013 0 0 1 -62.5797572,53.304606 63.394508,53.309013 0 0 1 -64.188319,-51.934456 63.394508,53.309013 0 0 1 60.929854,-54.63955 63.394508,53.309013 0 0 1 65.7544662,50.53" />
      <path
         style="fill:#f9f9f9;stroke-width:4.16557;stroke-linecap:square;stroke-miterlimit:0;paint-order:markers fill stroke"
         id="path9"
         sodipodi:type="arc"
         sodipodi:cx="-20.814041"
         sodipodi:cy="-177.62346"
         sodipodi:rx="50.427444"
         sodipodi:ry="36.019604"
         sodipodi:start="0"
         sodipodi:end="6.2317756"
         sodipodi:open="true"
         sodipodi:arc-type="arc"
         d="m 29.613403,-177.62346 a 50.427444,36.019604 0 0 1 -49.779347,36.01663 50.427444,36.019604 0 0 1 -51.058883,-35.09085 50.427444,36.019604 0 0 1 48.466922,-36.91861 50.427444,36.019604 0 0 1 52.304684,34.14189" />
      <path
         style="fill:#f9f9f9;stroke-width:4.16557;stroke-linecap:square;stroke-miterlimit:0;paint-order:markers fill stroke"
         id="path10"
         sodipodi:type="arc"
         sodipodi:cx="41.139683"
         sodipodi:cy="-190.5905"
         sodipodi:rx="37.460388"
         sodipodi:ry="37.460388"
         sodipodi:start="0"
         sodipodi:end="6.2317756"
         sodipodi:open="true"
         sodipodi:arc-type="arc"
         d="m 78.600071,-190.5905 a 37.460388,37.460388 0 0 1 -36.978945,37.45729 37.460388,37.460388 0 0 1 -37.9294563,-36.49448 37.460388,37.460388 0 0 1 36.0040003,-38.39536 37.460388,37.460388 0 0 1 38.854909,35.50757" />
      <g
         id="g10"
         transform="matrix(-0.93084745,0,0,0.93084745,-57.928537,-129.77962)"
         style="fill:#f9f9f9">
        <path
           style="fill:#f9f9f9;stroke-width:4.16557;stroke-linecap:square;stroke-miterlimit:0;paint-order:markers fill stroke"
           id="path5-7"
           sodipodi:type="arc"
           sodipodi:cx="-203.83466"
           sodipodi:cy="-8.9785242"
           sodipodi:rx="63.394508"
           sodipodi:ry="53.309013"
           sodipodi:start="0"
           sodipodi:end="6.2317756"
           sodipodi:open="true"
           sodipodi:arc-type="arc"
           d="m -140.44015,-8.9785242 a 63.394508,53.309013 0 0 1 -62.57975,53.3046102 63.394508,53.309013 0 0 1 -64.18832,-51.9344607 63.394508,53.309013 0 0 1 60.92985,-54.6395413 63.394508,53.309013 0 0 1 65.75447,50.529998" />
        <path
           style="fill:#f9f9f9;stroke-width:4.16557;stroke-linecap:square;stroke-miterlimit:0;paint-order:markers fill stroke"
           id="path9-6"
           sodipodi:type="arc"
           sodipodi:cx="-170.69662"
           sodipodi:cy="-49.320488"
           sodipodi:rx="50.427444"
           sodipodi:ry="36.019604"
           sodipodi:start="0"
           sodipodi:end="6.2317756"
           sodipodi:open="true"
           sodipodi:arc-type="arc"
           d="m -120.26918,-49.320488 a 50.427444,36.019604 0 0 1 -49.77935,36.016629 50.427444,36.019604 0 0 1 -51.05888,-35.090852 50.427444,36.019604 0 0 1 48.46692,-36.91861 50.427444,36.019604 0 0 1 52.30469,34.141891" />
        <path
           style="fill:#f9f9f9;stroke-width:4.16557;stroke-linecap:square;stroke-miterlimit:0;paint-order:markers fill stroke"
           id="path10-1"
           sodipodi:type="arc"
           sodipodi:cx="-108.7429"
           sodipodi:cy="-62.287529"
           sodipodi:rx="37.460388"
           sodipodi:ry="37.460388"
           sodipodi:start="0"
           sodipodi:end="6.2317756"
           sodipodi:open="true"
           sodipodi:arc-type="arc"
           d="m -71.282509,-62.287529 a 37.460388,37.460388 0 0 1 -36.978941,37.457294 37.460388,37.460388 0 0 1 -37.92946,-36.494486 37.460388,37.460388 0 0 1 36.004,-38.395354 37.460388,37.460388 0 0 1 38.854909,35.507567" />
      </g>
    </g>
    <path
       style="fill:#f9f9f9;stroke-width:4.801;stroke-linecap:square;stroke-miterlimit:0;paint-order:markers fill stroke"
       id="path11"
       sodipodi:type="arc"
       sodipodi:cx="31.70331"
       sodipodi:cy="-123.68204"
       sodipodi:rx="81.019569"
       sodipodi:ry="51.66465"
       sodipodi:start="0"
       sodipodi:end="6.2317756"
       sodipodi:open="true"
       sodipodi:arc-type="arc"
       d="m 112.72288,-123.68204 a 81.019569,51.66465 0 0 1 -79.978301,51.660386 81.019569,51.66465 0 0 1 -82.034073,-50.332496 81.019569,51.66465 0 0 1 77.869684,-52.95414 81.019569,51.66465 0 0 1 84.03565,48.97136" />
  </g>
  <g
     id="g12-2"
     inkscape:label="cloud"
     style="fill:#f9f9f9"
     transform="matrix(1.0145661,0,0,1,-36.411464,436.54775)">
    <g
       id="g11-2"
       style="fill:#f9f9f9">
      <path
         style="fill:#f9f9f9;stroke-width:4.16557;stroke-linecap:square;stroke-miterlimit:0;paint-order:markers fill stroke"
         id="path5-1"
         sodipodi:type="arc"
         sodipodi:cx="-53.952072"
         sodipodi:cy="-137.28149"
         sodipodi:rx="63.394508"
         sodipodi:ry="53.309013"
         sodipodi:start="0"
         sodipodi:end="6.2317756"
         sodipodi:open="true"
         sodipodi:arc-type="arc"
         d="m 9.4424362,-137.28149 a 63.394508,53.309013 0 0 1 -62.5797572,53.304606 63.394508,53.309013 0 0 1 -64.188319,-51.934456 63.394508,53.309013 0 0 1 60.929854,-54.63955 63.394508,53.309013 0 0 1 65.7544662,50.53" />
      <path
         style="fill:#f9f9f9;stroke-width:4.16557;stroke-linecap:square;stroke-miterlimit:0;paint-order:markers fill stroke"
         id="path9-68"
         sodipodi:type="arc"
         sodipodi:cx="-20.814041"
         sodipodi:cy="-177.62346"
         sodipodi:rx="50.427444"
         sodipodi:ry="36.019604"
         sodipodi:start="0"
         sodipodi:end="6.2317756"
         sodipodi:open="true"
         sodipodi:arc-type="arc"
         d="m 29.613403,-177.62346 a 50.427444,36.019604 0 0 1 -49.779347,36.01663 50.427444,36.019604 0 0 1 -51.058883,-35.09085 50.427444,36.019604 0 0 1 48.466922,-36.91861 50.427444,36.019604 0 0 1 52.304684,34.14189" />
      <path
         style="fill:#f9f9f9;stroke-width:4.16557;stroke-linecap:square;stroke-miterlimit:0;paint-order:markers fill stroke"
         id="path10-5"
         sodipodi:type="arc"
         sodipodi:cx="41.139683"
         sodipodi:cy="-190.5905"
         sodipodi:rx="37.460388"
         sodipodi:ry="37.460388"
         sodipodi:start="0"
         sodipodi:end="6.2317756"
         sodipodi:open="true"
         sodipodi:arc-type="arc"
         d="m 78.600071,-190.5905 a 37.460388,37.460388 0 0 1 -36.978945,37.45729 37.460388,37.460388 0 0 1 -37.9294563,-36.49448 37.460388,37.460388 0 0 1 36.0040003,-38.39536 37.460388,37.460388 0 0 1 38.854909,35.50757" />
      <g
         id="g10-7"
         transform="matrix(-0.93084745,0,0,0.93084745,-57.928537,-129.77962)"
         style="fill:#f9f9f9">
        <path
           style="fill:#f9f9f9;stroke-width:4.16557;stroke-linecap:square;stroke-miterlimit:0;paint-order:markers fill stroke"
           id="path5-7-6"
           sodipodi:type="arc"
           sodipodi:cx="-203.83466"
           sodipodi:cy="-8.9785242"
           sodipodi:rx="63.394508"
           sodipodi:ry="53.309013"
           sodipodi:start="0"
           sodipodi:end="6.2317756"
           sodipodi:open="true"
           sodipodi:arc-type="arc"
           d="m -140.44015,-8.9785242 a 63.394508,53.309013 0 0 1 -62.57975,53.3046102 63.394508,53.309013 0 0 1 -64.18832,-51.9344607 63.394508,53.309013 0 0 1 60.92985,-54.6395413 63.394508,53.309013 0 0 1 65.75447,50.529998" />
        <path
           style="fill:#f9f9f9;stroke-width:4.16557;stroke-linecap:square;stroke-miterlimit:0;paint-order:markers fill stroke"
           id="path9-6-1"
           sodipodi:type="arc"
           sodipodi:cx="-170.69662"
           sodipodi:cy="-49.320488"
           sodipodi:rx="50.427444"
           sodipodi:ry="36.019604"
           sodipodi:start="0"
           sodipodi:end="6.2317756"
           sodipodi:open="true"
           sodipodi:arc-type="arc"
           d="m -120.26918,-49.320488 a 50.427444,36.019604 0 0 1 -49.77935,36.016629 50.427444,36.019604 0 0 1 -51.05888,-35.090852 50.427444,36.019604 0 0 1 48.46692,-36.91861 50.427444,36.019604 0 0 1 52.30469,34.141891" />
        <path
           style="fill:#f9f9f9;stroke-width:4.16557;stroke-linecap:square;stroke-miterlimit:0;paint-order:markers fill stroke"
           id="path10-1-8"
           sodipodi:type="arc"
           sodipodi:cx="-108.7429"
           sodipodi:cy="-62.287529"
           sodipodi:rx="37.460388"
           sodipodi:ry="37.460388"
           sodipodi:start="0"
           sodipodi:end="6.2317756"
           sodipodi:open="true"
           sodipodi:arc-type="arc"
           d="m -71.282509,-62.287529 a 37.460388,37.460388 0 0 1 -36.978941,37.457294 37.460388,37.460388 0 0 1 -37.92946,-36.494486 37.460388,37.460388 0 0 1 36.004,-38.395354 37.460388,37.460388 0 0 1 38.854909,35.507567" />
      </g>
    </g>
    <path
       style="fill:#f9f9f9;stroke-width:4.801;stroke-linecap:square;stroke-miterlimit:0;paint-order:markers fill stroke"
       id="path11-9"
       sodipodi:type="arc"
       sodipodi:cx="31.70331"
       sodipodi:cy="-123.68204"
       sodipodi:rx="81.019569"
       sodipodi:ry="51.66465"
       sodipodi:start="0"
       sodipodi:end="6.2317756"
       sodipodi:open="true"
       sodipodi:arc-type="arc"
       d="m 112.72288,-123.68204 a 81.019569,51.66465 0 0 1 -79.978301,51.660386 81.019569,51.66465 0 0 1 -82.034073,-50.332496 81.019569,51.66465 0 0 1 77.869684,-52.95414 81.019569,51.66465 0 0 1 84.03565,48.97136" />
  </g>
</svg>
