<?xml version="1.0" encoding="UTF-8" standalone="no"?>
<!-- Created with Inkscape (http://www.inkscape.org/) -->

<svg
   width="1351.5864"
   height="1351.5864"
   viewBox="0 0 357.60724 357.60724"
   version="1.1"
   id="svg1"
   inkscape:version="1.4 (86a8ad7, 2024-10-11)"
   sodipodi:docname="clear-d.svg"
   inkscape:export-filename="clear-n.png"
   inkscape:export-xdpi="96"
   inkscape:export-ydpi="96"
   xmlns:inkscape="http://www.inkscape.org/namespaces/inkscape"
   xmlns:sodipodi="http://sodipodi.sourceforge.net/DTD/sodipodi-0.dtd"
   xmlns="http://www.w3.org/2000/svg"
   xmlns:svg="http://www.w3.org/2000/svg">
  <sodipodi:namedview
     id="namedview1"
     pagecolor="#ffffff"
     bordercolor="#000000"
     borderopacity="0.25"
     inkscape:showpageshadow="2"
     inkscape:pageopacity="0.0"
     inkscape:pagecheckerboard="0"
     inkscape:deskcolor="#d1d1d1"
     inkscape:document-units="mm">
    <inkscape:page
       x="0"
       y="0"
       width="357.60724"
       height="357.60724"
       id="page2"
       margin="0"
       bleed="0" />
  </sodipodi:namedview>
  <defs
     id="defs1" />
  <path
     style="fill:#cccccc;stroke-width:4.801;stroke-linecap:square;stroke-miterlimit:0;paint-order:markers fill stroke"
     id="path1"
     sodipodi:type="arc"
     sodipodi:cx="178.80362"
     sodipodi:cy="178.80362"
     sodipodi:rx="178.80362"
     sodipodi:ry="178.80362"
     sodipodi:start="0"
     sodipodi:end="6.2317756"
     sodipodi:open="true"
     sodipodi:arc-type="arc"
     d="M 357.60724,178.80362 A 178.80362,178.80362 0 0 1 181.10162,357.59247 178.80362,178.80362 0 0 1 0.05906805,183.39923 178.80362,178.80362 0 0 1 171.91115,0.13289398 178.80362,178.80362 0 0 1 357.37101,169.61543" />
  <path
     style="fill:#808080;stroke:none;stroke-width:9.80101;stroke-linecap:square;stroke-miterlimit:0;paint-order:markers fill stroke"
     id="path6"
     sodipodi:type="arc"
     sodipodi:cx="208.99124"
     sodipodi:cy="63.029106"
     sodipodi:rx="17.913534"
     sodipodi:ry="11.942357"
     sodipodi:start="0"
     sodipodi:end="6.2317756"
     sodipodi:open="true"
     sodipodi:arc-type="arc"
     d="M 226.90478,63.029106 A 17.913534,11.942357 0 0 1 209.22147,74.970477 17.913534,11.942357 0 0 1 191.08363,63.336049 17.913534,11.942357 0 0 1 208.30072,51.095625 17.913534,11.942357 0 0 1 226.88111,62.415423" />
  <path
     style="fill:#808080;stroke:none;stroke-width:9.80101;stroke-linecap:square;stroke-miterlimit:0;paint-order:markers fill stroke"
     id="path7"
     sodipodi:type="arc"
     sodipodi:cx="164.2074"
     sodipodi:cy="142.64481"
     sodipodi:rx="22.889517"
     sodipodi:ry="29.85589"
     sodipodi:start="0"
     sodipodi:end="6.2317756"
     sodipodi:open="true"
     sodipodi:arc-type="arc"
     d="m 187.09691,142.64481 a 22.889517,29.85589 0 0 1 -22.59533,29.85342 22.889517,29.85589 0 0 1 -23.17614,-29.08607 22.889517,29.85589 0 0 1 21.99962,-30.60105 22.889517,29.85589 0 0 1 23.74161,28.29949" />
  <path
     style="fill:#808080;stroke:none;stroke-width:9.80101;stroke-linecap:square;stroke-miterlimit:0;paint-order:markers fill stroke"
     id="path8"
     sodipodi:type="arc"
     sodipodi:cx="268.70303"
     sodipodi:cy="165.53433"
     sodipodi:rx="27.865498"
     sodipodi:ry="26.870304"
     sodipodi:start="0"
     sodipodi:end="6.2317756"
     sodipodi:open="true"
     sodipodi:arc-type="arc"
     d="m 296.56853,165.53433 a 27.865498,26.870304 0 0 1 -27.50737,26.86809 27.865498,26.870304 0 0 1 -28.21442,-26.17747 27.865498,26.870304 0 0 1 26.78214,-27.54095 27.865498,26.870304 0 0 1 28.90284,25.46955" />
</svg>
